<svg width="20" height="37" viewBox="0 0 20 37" fill="none" xmlns="http://www.w3.org/2000/svg">
<path d="M9.94585 36.2713C11.7404 34.1008 13.4039 31.7212 14.9187 29.1575C17.192 25.3074 19.8916 19.5737 19.8916 14.1098C19.8926 11.3194 19.3098 8.59132 18.2169 6.27077C17.124 3.95022 15.5702 2.14154 13.7521 1.07364C11.9341 0.00573523 9.93342 -0.273392 8.00342 0.271582C6.07342 0.816557 4.30082 2.16113 2.90994 4.13515C1.98391 5.4424 1.24992 6.99708 0.750448 8.70923C0.250975 10.4214 -0.00406265 12.257 9.53674e-05 14.1098C9.53674e-05 19.5737 2.69966 25.3074 4.97297 29.1575C6.48785 31.7212 8.15127 34.1008 9.94585 36.2713ZM9.94585 8.06579C11.0763 8.06579 12.1605 8.70258 12.9599 9.83605C13.7592 10.9695 14.2083 12.5069 14.2083 14.1098C14.2083 15.7128 13.7592 17.2501 12.9599 18.3836C12.1605 19.5171 11.0763 20.1539 9.94585 20.1539C8.81537 20.1539 7.7312 19.5171 6.93183 18.3836C6.13246 17.2501 5.68338 15.7128 5.68338 14.1098C5.68338 12.5069 6.13246 10.9695 6.93183 9.83605C7.7312 8.70258 8.81537 8.06579 9.94585 8.06579Z" fill="white"/>
</svg>
