<svg width="28" height="28" viewBox="0 0 28 28" fill="none" xmlns="http://www.w3.org/2000/svg">
<path d="M9.06712 2.84544L10.3225 2.44411C11.4996 2.06844 12.7573 2.67627 13.2613 3.86394L14.2646 6.22994C14.701 7.26011 14.4583 8.47227 13.665 9.22594L11.4541 11.3236C11.5906 12.5789 12.013 13.8144 12.72 15.0301C13.3913 16.2063 14.2919 17.2357 15.3683 18.0576L18.0236 17.1709C19.0293 16.8361 20.126 17.2223 20.742 18.1288L22.1805 20.2404C22.898 21.2951 22.7685 22.7488 21.8783 23.6424L20.9251 24.6003C19.9755 25.5534 18.6186 25.8999 17.3645 25.5079C14.4011 24.5839 11.6793 21.8411 9.19429 17.2794C6.70579 12.7108 5.82729 8.83277 6.55995 5.65011C6.86795 4.31077 7.82112 3.24327 9.06712 2.84544Z" fill="white"/>
</svg>
