<svg width="21" height="17" viewBox="0 0 21 17" fill="none" xmlns="http://www.w3.org/2000/svg">
<g clip-path="url(#clip0_361_469)">
<path d="M20.2031 0H13.906C13.4736 0 12.868 0.250835 12.5626 0.556245L4.75525 8.36362C4.60804 8.51152 4.52539 8.71171 4.52539 8.92039C4.52539 9.12907 4.60804 9.32925 4.75525 9.47715L11.5131 16.235C11.661 16.3822 11.8612 16.4649 12.0699 16.4649C12.2786 16.4649 12.4787 16.3822 12.6266 16.235L20.434 8.42764C20.7405 8.12118 20.9903 7.51665 20.9903 7.08425V0.787139C20.9897 0.578547 20.9066 0.378657 20.7591 0.23116C20.6116 0.0836624 20.4117 0.000554032 20.2031 0V0ZM16.2674 6.29711C16.0606 6.29704 15.8559 6.25624 15.6648 6.17704C15.4738 6.09783 15.3002 5.98178 15.154 5.83549C15.0078 5.68921 14.8919 5.51557 14.8128 5.32448C14.7337 5.13339 14.6931 4.92859 14.6931 4.72179C14.6932 4.51498 14.734 4.31021 14.8132 4.11917C14.8924 3.92814 15.0085 3.75457 15.1548 3.60839C15.301 3.4622 15.4747 3.34626 15.6658 3.26718C15.8569 3.1881 16.0617 3.14744 16.2685 3.14751C16.6861 3.14765 17.0866 3.3137 17.3819 3.60913C17.6771 3.90456 17.8429 4.30517 17.8428 4.72283C17.8426 5.1405 17.6766 5.541 17.3811 5.83624C17.0857 6.13147 16.6851 6.29725 16.2674 6.29711Z" fill="white"/>
<path d="M2.09924 8.92091L11.0201 0H9.70825C9.27585 0 8.67028 0.250835 8.36487 0.556245L0.557496 8.36362C0.410283 8.51152 0.327637 8.71171 0.327637 8.92039C0.327637 9.12907 0.410283 9.32925 0.557496 9.47715L7.31535 16.235C7.46325 16.3822 7.66344 16.4649 7.87212 16.4649C8.0808 16.4649 8.28098 16.3822 8.42889 16.235L8.92216 15.7417L2.10029 8.91986L2.09924 8.92091Z" fill="white"/>
</g>
<defs>
<clipPath id="clip0_361_469">
<rect width="20.9904" height="16.7923" fill="white"/>
</clipPath>
</defs>
</svg>
